Coordinates
version=1
nRows=13
nColumns=40
inDegrees=yes

Units are S.I. units (second, meters, Newtons, ...)
If the header above contains a line with 'inDegrees', this indicates whether rotational values are in degrees (yes) or radians (no).

endheader
time	pelvis_tilt	pelvis_list	pelvis_rotation	pelvis_tx	pelvis_ty	pelvis_tz	hip_flexion_r	hip_adduction_r	hip_rotation_r	knee_angle_r	knee_angle_r_beta	ankle_angle_r	subtalar_angle_r	mtp_angle_r	hip_flexion_l	hip_adduction_l	hip_rotation_l	knee_angle_l	knee_angle_l_beta	ankle_angle_l	subtalar_angle_l	mtp_angle_l	lumbar_extension	lumbar_bending	lumbar_rotation	arm_flex_r	arm_add_r	arm_rot_r	elbow_flex_r	pro_sup_r	wrist_flex_r	wrist_dev_r	arm_flex_l	arm_add_l	arm_rot_l	elbow_flex_l	pro_sup_l	wrist_flex_l	wrist_dev_l
      1.07200000	     19.76033062	      3.11045683	      4.64739392	      1.47118283	      0.97558575	     -0.35005634	      2.85389112	     -5.34165783	     -8.19834667	     33.32664018	      0.58165960	     -5.78728732	      0.00000000	      0.00000000	    -27.52154929	      4.81373995	      5.58719132	      8.14723365	      0.14219605	     -4.25375231	      0.00000000	      0.00000000	    -34.55941999	     -0.42135005	     -7.68975192	     -0.83817576	    -15.36642466	      6.96927804	     41.07929445	     74.93114245	      0.00000000	      0.00000000	      7.57856958	    -26.84220398	     25.81986547	     54.28191822	     76.00677304	      0.00000000	      0.00000000
      1.07600000	     19.56913440	      3.26943977	      4.62900910	      1.47615048	      0.97460720	     -0.35026652	      3.40948611	     -5.55274466	     -8.43264525	     32.38207541	      0.56517383	     -6.18309049	      0.00000000	      0.00000000	    -27.73800224	      4.99383326	      5.48284936	      8.02162226	      0.14000372	     -4.12094045	      0.00000000	      0.00000000	    -34.44305835	     -0.56350140	     -7.81187302	     -0.87908884	    -15.34622680	      6.90114188	     41.14149072	     74.88351658	      0.00000000	      0.00000000	      7.75909723	    -26.92631636	     25.91894805	     54.49290115	     76.05932070	      0.00000000	      0.00000000
      1.08000000	     19.40383335	      3.37273638	      4.68021819	      1.48087051	      0.97370675	     -0.35036088	      3.89681538	     -5.64502371	     -8.59138632	     31.28261911	      0.54598470	     -6.85572312	      0.00000000	      0.00000000	    -27.96566257	      5.06125140	      5.51441328	      7.88695788	      0.13765338	     -4.00425581	      0.00000000	      0.00000000	    -34.37555175	     -0.62941853	     -7.94255261	     -0.83150134	    -15.26271044	      6.74796488	     41.11416365	     74.81903003	      0.00000000	      0.00000000	      7.99276965	    -26.98635156	     26.07121530	     54.66156164	     76.04703424	      0.00000000	      0.00000000
      1.08400000	     19.26226893	      3.49651495	      4.68873825	      1.48579721	      0.97275477	     -0.35054228	      4.36450571	     -5.79685209	     -8.93977496	     30.24003698	      0.52778821	     -7.35837864	      0.00000000	      0.00000000	    -28.21191786	      5.17751673	      5.44446743	      7.80331717	      0.13619358	     -3.87791666	      0.00000000	      0.00000000	    -34.31167481	     -0.71953312	     -8.04937019	     -0.85215536	    -15.22767907	      6.61022818	     41.17881636	     74.77970051	      0.00000000	      0.00000000	      8.20729225	    -27.08274709	     26.14625645	     54.80557244	     76.11146768	      0.00000000	      0.00000000
      1.08800000	     19.21109867	      3.50237688	      4.81379851	      1.49044519	      0.97200812	     -0.35052814	      4.62011847	     -5.72441063	     -9.13901993	     28.93284568	      0.50497342	     -8.24997952	      0.00000000	      0.00000000	    -28.49654355	      5.09286637	      5.51028321	      7.78014693	      0.13578918	     -3.72732798	      0.00000000	      0.00000000	    -34.37383833	     -0.67751320	     -8.13602708	     -0.83162227	    -15.11380414	      6.40687831	     41.15726551	     74.68585382	      0.00000000	      0.00000000	      8.55452043	    -27.15314379	     26.42672602	     54.93929447	     76.06896783	      0.00000000	      0.00000000
      1.09200000	     19.01030871	      3.61616498	      4.82494729	      1.49527141	      0.97096071	     -0.35057833	      5.14312117	     -5.83545026	     -9.33085073	     27.88318374	      0.48665336	     -8.67061753	      0.00000000	      0.00000000	    -28.64782720	      5.19704509	      5.41998712	      7.74149752	      0.13511462	     -3.57990177	      0.00000000	      0.00000000	    -34.24464188	     -0.78006646	     -8.23861092	     -0.68920360	    -15.08180241	      6.51174758	     40.93947530	     74.63035430	      0.00000000	      0.00000000	      8.81584734	    -27.26454789	     26.57369508	     55.01781102	     76.17562863	      0.00000000	      0.00000000
      1.09600000	     18.80322348	      3.74723037	      4.85614025	      1.50016922	      0.96984514	     -0.35064147	      5.67176148	     -5.97249625	     -9.61176186	     26.89914582	      0.46947866	     -9.01017699	      0.00000000	      0.00000000	    -28.76519177	      5.30938585	      5.30220222	      7.77220597	      0.13565058	     -3.37933923	      0.00000000	      0.00000000	    -34.11775174	     -0.88467071	     -8.38365406	     -0.75391415	    -14.99110510	      6.32602488	     41.06355784	     74.58510408	      0.00000000	      0.00000000	      8.99971523	    -27.32069132	     26.59314423	     55.14663953	     76.22634818	      0.00000000	      0.00000000
      1.10000000	     18.59652432	      3.86829133	      4.85786997	      1.50499512	      0.96865539	     -0.35064079	      6.22790636	     -6.10586405	     -9.99016351	     25.95527547	      0.45300502	     -9.30883425	      0.00000000	      0.00000000	    -28.87593821	      5.42703578	      5.17235183	      7.80650822	      0.13624927	     -3.18069672	      0.00000000	      0.00000000	    -34.00758342	     -1.00820553	     -8.49692248	     -0.71443200	    -14.92895290	      6.27028104	     41.05549880	     74.55342527	      0.00000000	      0.00000000	      9.17373441	    -27.38576054	     26.72171281	     55.36139175	     76.17188205	      0.00000000	      0.00000000
      1.10400000	     18.36463744	      3.99102081	      4.82649917	      1.50987269	      0.96741372	     -0.35067334	      6.80049201	     -6.20994050	    -10.22071819	     25.00457232	      0.43641212	     -9.60546201	      0.00000000	      0.00000000	    -28.96430955	      5.56188890	      5.05657123	      7.84415153	      0.13690627	     -2.99750786	      0.00000000	      0.00000000	    -33.85728076	     -1.13734522	     -8.55688598	     -0.67454813	    -14.87896883	      6.21396966	     40.97728827	     74.52550841	      0.00000000	      0.00000000	      9.39110363	    -27.46213551	     26.77165525	     55.51105006	     76.20986070	      0.00000000	      0.00000000
      1.10800000	     18.24550056	      3.98239782	      4.96893143	      1.51455823	      0.96647821	     -0.35048693	      7.08068000	     -6.10165196	    -10.50157910	     23.68069950	      0.41330618	    -10.28947617	      0.00000000	      0.00000000	    -29.05944659	      5.44462570	      5.02036145	      8.07236906	      0.14088942	     -2.70972089	      0.00000000	      0.00000000	    -33.83689102	     -1.08359515	     -8.66617321	     -0.53693912	    -14.73363654	      6.10030336	     40.72846957	     74.50452390	      0.00000000	      0.00000000	      9.70837201	    -27.54808373	     27.04867262	     55.55932266	     75.99461375	      0.00000000	      0.00000000
      1.11200000	     17.99965920	      4.12338474	      4.92007499	      1.51934715	      0.96519701	     -0.35037497	      7.66631342	     -6.19419323	    -10.58287835	     22.74159948	      0.39691579	    -10.54701085	      0.00000000	      0.00000000	    -29.09526148	      5.59223887	      4.92003359	      8.17361242	      0.14265645	     -2.49920544	      0.00000000	      0.00000000	    -33.68883639	     -1.25820971	     -8.75122488	     -0.46438938	    -14.64700695	      6.07309372	     40.67671914	     74.52597573	      0.00000000	      0.00000000	      9.89922901	    -27.64880700	     27.05230126	     55.69754790	     76.06547491	      0.00000000	      0.00000000
      1.11600000	     17.71401761	      4.22027696	      4.90023296	      1.52422141	      0.96382610	     -0.35019661	      8.30838657	     -6.24682889	    -10.73657087	     21.87534821	      0.38179685	    -10.73631219	      0.00000000	      0.00000000	    -29.11841035	      5.67856064	      4.85098861	      8.22907921	      0.14362453	     -2.29883019	      0.00000000	      0.00000000	    -33.47815525	     -1.39244103	     -8.81388797	     -0.41300503	    -14.55685524	      6.05647140	     40.62951420	     74.52294825	      0.00000000	      0.00000000	     10.07254101	    -27.66933370	     27.12283338	     55.79918753	     76.04342088	      0.00000000	      0.00000000
      1.12000000	     17.54696623	      4.27948157	      4.87338214	      1.52897506	      0.96270422	     -0.34987654	      8.71316204	     -6.18438409	    -10.72716576	     20.74484057	      0.36206577	    -11.29871248	      0.00000000	      0.00000000	    -29.17246735	      5.71227853	      4.77945183	      8.45000860	      0.14748047	     -2.10801385	      0.00000000	      0.00000000	    -33.40397737	     -1.47477602	     -8.86049461	     -0.19900334	    -14.45890454	      6.07484590	     40.27986503	     74.53653870	      0.00000000	      0.00000000	     10.32159118	    -27.80104054	     27.22026184	     55.86455432	     76.13469001	      0.00000000	      0.00000000
